<svg width="18" height="18" viewBox="0 0 18 18" fill="none" xmlns="http://www.w3.org/2000/svg">
<path fill-rule="evenodd" clip-rule="evenodd" d="M4.05788 18C1.81682 18 0 16.1832 0 13.9421V4.05793C0 1.81682 1.81682 0 4.05788 0H13.9421C16.1832 0 18 1.81682 18 4.05793V13.9421C18 16.1832 16.1832 18 13.9421 18H4.05788Z" fill="#666666"/>
<circle cx="9" cy="9" r="5.625" stroke="white" stroke-width="0.75"/>
<path d="M12.125 9C12.125 10.6024 11.7453 12.0348 11.151 13.0537C10.5512 14.0818 9.77775 14.625 9 14.625C8.22225 14.625 7.44879 14.0818 6.84904 13.0537C6.25466 12.0348 5.875 10.6024 5.875 9C5.875 7.39761 6.25466 5.96525 6.84904 4.94631C7.44879 3.91817 8.22225 3.375 9 3.375C9.77775 3.375 10.5512 3.91817 11.151 4.94631C11.7453 5.96525 12.125 7.39761 12.125 9Z" stroke="white" stroke-width="0.75"/>
<path d="M3.5 7.375H14.5" stroke="white" stroke-width="0.75"/>
<path d="M9 3.5V14.5" stroke="white" stroke-width="0.75"/>
<path d="M3.5 10.625H14.5" stroke="white" stroke-width="0.75"/>
</svg>
