<svg width="116" height="25" fill="none" xmlns="http://www.w3.org/2000/svg"><path fill-rule="evenodd" clip-rule="evenodd" d="M83.244 17.664c0 .128.102.228.23.228h3.424c.127 0 .228-.1.228-.228l-.077-6.27.077-6.296a.227.227 0 0 0-.228-.227h-3.425c-.127 0-.229.1-.229.227l.077 6.297-.077 6.27Zm0-14.286c0 .126.102.227.23.227h3.398c.127 0 .228-.1.228-.227V.42a.227.227 0 0 0-.228-.228h-3.399a.228.228 0 0 0-.229.228v2.958ZM24.32 7.348c-1.217 0-2.537.936-2.968 2.782l.101 7.535a.227.227 0 0 1-.229.227H17.9a.227.227 0 0 1-.228-.227l.102-8.648L17.672.42c0-.127.102-.228.228-.228h3.323c.128 0 .23.101.23.228l-.077 5.891c.913-1.163 2.233-1.744 3.958-1.744 2.943 0 4.744 1.744 4.668 5.563v2.78l.076 4.755a.227.227 0 0 1-.229.227h-3.424a.227.227 0 0 1-.23-.227l.077-4.704-.025-3.287c-.026-1.568-.888-2.326-1.928-2.326ZM10.647 18.195c-3.805 0-6.241-1.541-6.368-4.45 0-.126.101-.228.228-.228h3.247c.127 0 .228.102.228.228.103 1.467 1.067 2.1 2.841 2.1 1.497 0 2.31-.583 2.31-1.594 0-.997-1.385-1.204-3.04-1.451-2.457-.368-5.51-.824-5.51-4.087 0-2.705 2.183-4.146 5.708-4.146 3.425 0 5.734 1.365 5.962 4.096.025.126-.077.228-.204.228h-3.093c-.128 0-.23-.102-.255-.228-.202-1.112-.914-1.795-2.46-1.795-1.243 0-2.03.454-2.03 1.568 0 .993 1.374 1.182 3.02 1.408 2.46.339 5.53.76 5.53 4.079 0 2.73-2.589 4.272-6.114 4.272Zm29.678-6.776c0 2.984-.887 4.274-2.765 4.274-1.902 0-2.841-1.315-2.841-4.248 0-2.933.888-4.35 2.816-4.374 1.876 0 2.79 1.415 2.79 4.348Zm-9.488 0c0 4.147 2.461 6.802 6.723 6.802 4.262 0 6.672-2.732 6.672-6.878 0-4.147-2.41-6.802-6.672-6.802s-6.723 2.731-6.723 6.878Zm20.7-4.374c-1.522 0-2.435.91-2.74 2.706h5.353c-.152-1.392-.939-2.706-2.613-2.706Zm6.114 6.448c.127 0 .229.1.202.227-.329 2.377-2.611 4.501-6.265 4.501-4.364 0-6.724-2.858-6.724-6.802 0-4.146 2.488-6.878 6.648-6.878 4.287 0 6.672 2.833 6.748 7.384a.227.227 0 0 1-.229.227h-9.335c.152 2.453 1.116 3.541 2.942 3.541 1.269 0 2.182-.582 2.537-1.973a.296.296 0 0 1 .28-.227h3.196Zm10.882-1.947c0 2.655-.99 4.046-2.917 4.046-1.827 0-2.816-1.543-2.791-4.3.025-2.704 1.015-4.095 2.866-4.095 1.853 0 2.842 1.466 2.842 4.349Zm-5.581 5.006c.888 1.037 2.156 1.593 3.729 1.593 3.551 0 5.734-3.033 5.734-6.802 0-3.793-1.955-6.725-5.658-6.725-1.65 0-2.943.657-3.856 1.769l.076-1.29a.227.227 0 0 0-.228-.226h-3.4c-.127 0-.228.1-.228.227l.076 7.51-.076 9.355c0 .126.101.228.228.228h3.425a.228.228 0 0 0 .229-.228l-.051-5.41Zm10.577 1.34a.226.226 0 0 1-.228-.228l.101-6.296-.1-6.27c0-.126.1-.227.227-.227h3.348c.128 0 .228.1.228.227l-.1 1.973c1.014-1.544 2.765-2.303 4.667-2.303.203 0 .407.026.584.05a.298.298 0 0 1 .228.28V7.45c0 .125-.101.201-.228.201-.153-.025-.33-.025-.481-.025-2.69 0-4.694 1.493-4.67 4.476v5.562c0 .128-.1.228-.228.228H73.53Zm25.722-.228a.226.226 0 0 1-.228.228h-10.58a.226.226 0 0 1-.227-.228V15.44c0-.127.05-.304.152-.405l5.86-7.484h-5.252a.227.227 0 0 1-.228-.229V5.098c0-.126.101-.227.228-.227h9.666c.127 0 .229.1.229.227v2.276a.618.618 0 0 1-.153.404l-5.936 7.434h6.24c.128 0 .229.1.229.228v2.224Zm4.134-7.913c.304-1.796 1.218-2.706 2.74-2.706 1.674 0 2.461 1.314 2.613 2.706h-5.353Zm9.057 3.97c.025-.128-.076-.228-.203-.228h-3.197c-.127 0-.254.1-.279.227-.355 1.391-1.268 1.973-2.537 1.973-1.827 0-2.791-1.088-2.943-3.54h9.336c.127 0 .228-.101.228-.228-.075-4.551-2.46-7.384-6.748-7.384-4.16 0-6.645 2.732-6.645 6.878 0 3.944 2.358 6.802 6.722 6.802 3.653 0 5.935-2.124 6.266-4.5Zm-56.44 8.47H.743a.74.74 0 0 1-.742-.74V5.016h1.485V20.71h54.518v1.48Zm9.527 0h49.729a.74.74 0 0 0 .742-.74V5.016h-1.485V20.71H65.529v1.48Z" fill="#000"/></svg>